<svg xmlns="http://www.w3.org/2000/svg" xmlns:xlink="http://www.w3.org/1999/xlink" width="128" zoomAndPan="magnify" viewBox="0 0 96 95.999999" height="128" preserveAspectRatio="xMidYMid meet" version="1.0"><defs><g/></defs><g fill="#4f46e5" fill-opacity="1"><g transform="translate(0.462502, 73.599996)"><g><path d="M 34.203125 -38.625 C 33.953125 -40.894531 32.929688 -42.660156 31.140625 -43.921875 C 29.347656 -45.191406 27.019531 -45.828125 24.15625 -45.828125 C 22.144531 -45.828125 20.421875 -45.519531 18.984375 -44.90625 C 17.546875 -44.300781 16.441406 -43.476562 15.671875 -42.4375 C 14.910156 -41.394531 14.523438 -40.207031 14.515625 -38.875 C 14.515625 -37.769531 14.769531 -36.804688 15.28125 -35.984375 C 15.789062 -35.171875 16.488281 -34.484375 17.375 -33.921875 C 18.257812 -33.359375 19.238281 -32.882812 20.3125 -32.5 C 21.382812 -32.125 22.46875 -31.804688 23.5625 -31.546875 L 28.5625 -30.296875 C 30.570312 -29.828125 32.503906 -29.191406 34.359375 -28.390625 C 36.222656 -27.597656 37.894531 -26.59375 39.375 -25.375 C 40.863281 -24.164062 42.039062 -22.703125 42.90625 -20.984375 C 43.78125 -19.265625 44.21875 -17.253906 44.21875 -14.953125 C 44.21875 -11.828125 43.414062 -9.082031 41.8125 -6.71875 C 40.21875 -4.351562 37.914062 -2.503906 34.90625 -1.171875 C 31.90625 0.148438 28.269531 0.8125 24 0.8125 C 19.851562 0.8125 16.257812 0.171875 13.21875 -1.109375 C 10.175781 -2.398438 7.800781 -4.273438 6.09375 -6.734375 C 4.382812 -9.191406 3.460938 -12.191406 3.328125 -15.734375 L 12.828125 -15.734375 C 12.960938 -13.878906 13.53125 -12.335938 14.53125 -11.109375 C 15.539062 -9.878906 16.851562 -8.957031 18.46875 -8.34375 C 20.09375 -7.738281 21.910156 -7.4375 23.921875 -7.4375 C 26.023438 -7.4375 27.867188 -7.753906 29.453125 -8.390625 C 31.035156 -9.023438 32.273438 -9.910156 33.171875 -11.046875 C 34.078125 -12.179688 34.539062 -13.507812 34.5625 -15.03125 C 34.539062 -16.414062 34.128906 -17.5625 33.328125 -18.46875 C 32.535156 -19.382812 31.425781 -20.148438 30 -20.765625 C 28.570312 -21.378906 26.90625 -21.929688 25 -22.421875 L 18.9375 -23.984375 C 14.550781 -25.109375 11.085938 -26.816406 8.546875 -29.109375 C 6.003906 -31.410156 4.734375 -34.46875 4.734375 -38.28125 C 4.734375 -41.414062 5.585938 -44.160156 7.296875 -46.515625 C 9.003906 -48.878906 11.332031 -50.710938 14.28125 -52.015625 C 17.226562 -53.328125 20.566406 -53.984375 24.296875 -53.984375 C 28.066406 -53.984375 31.378906 -53.328125 34.234375 -52.015625 C 37.085938 -50.710938 39.328125 -48.90625 40.953125 -46.59375 C 42.585938 -44.28125 43.429688 -41.625 43.484375 -38.625 Z M 34.203125 -38.625 "/></g></g></g><g fill="#44403c" fill-opacity="1"><g transform="translate(48.005468, 73.599996)"><g><path d="M 34.203125 -38.625 C 33.953125 -40.894531 32.929688 -42.660156 31.140625 -43.921875 C 29.347656 -45.191406 27.019531 -45.828125 24.15625 -45.828125 C 22.144531 -45.828125 20.421875 -45.519531 18.984375 -44.90625 C 17.546875 -44.300781 16.441406 -43.476562 15.671875 -42.4375 C 14.910156 -41.394531 14.523438 -40.207031 14.515625 -38.875 C 14.515625 -37.769531 14.769531 -36.804688 15.28125 -35.984375 C 15.789062 -35.171875 16.488281 -34.484375 17.375 -33.921875 C 18.257812 -33.359375 19.238281 -32.882812 20.3125 -32.5 C 21.382812 -32.125 22.46875 -31.804688 23.5625 -31.546875 L 28.5625 -30.296875 C 30.570312 -29.828125 32.503906 -29.191406 34.359375 -28.390625 C 36.222656 -27.597656 37.894531 -26.59375 39.375 -25.375 C 40.863281 -24.164062 42.039062 -22.703125 42.90625 -20.984375 C 43.78125 -19.265625 44.21875 -17.253906 44.21875 -14.953125 C 44.21875 -11.828125 43.414062 -9.082031 41.8125 -6.71875 C 40.21875 -4.351562 37.914062 -2.503906 34.90625 -1.171875 C 31.90625 0.148438 28.269531 0.8125 24 0.8125 C 19.851562 0.8125 16.257812 0.171875 13.21875 -1.109375 C 10.175781 -2.398438 7.800781 -4.273438 6.09375 -6.734375 C 4.382812 -9.191406 3.460938 -12.191406 3.328125 -15.734375 L 12.828125 -15.734375 C 12.960938 -13.878906 13.53125 -12.335938 14.53125 -11.109375 C 15.539062 -9.878906 16.851562 -8.957031 18.46875 -8.34375 C 20.09375 -7.738281 21.910156 -7.4375 23.921875 -7.4375 C 26.023438 -7.4375 27.867188 -7.753906 29.453125 -8.390625 C 31.035156 -9.023438 32.273438 -9.910156 33.171875 -11.046875 C 34.078125 -12.179688 34.539062 -13.507812 34.5625 -15.03125 C 34.539062 -16.414062 34.128906 -17.5625 33.328125 -18.46875 C 32.535156 -19.382812 31.425781 -20.148438 30 -20.765625 C 28.570312 -21.378906 26.90625 -21.929688 25 -22.421875 L 18.9375 -23.984375 C 14.550781 -25.109375 11.085938 -26.816406 8.546875 -29.109375 C 6.003906 -31.410156 4.734375 -34.46875 4.734375 -38.28125 C 4.734375 -41.414062 5.585938 -44.160156 7.296875 -46.515625 C 9.003906 -48.878906 11.332031 -50.710938 14.28125 -52.015625 C 17.226562 -53.328125 20.566406 -53.984375 24.296875 -53.984375 C 28.066406 -53.984375 31.378906 -53.328125 34.234375 -52.015625 C 37.085938 -50.710938 39.328125 -48.90625 40.953125 -46.59375 C 42.585938 -44.28125 43.429688 -41.625 43.484375 -38.625 Z M 34.203125 -38.625 "/></g></g></g></svg>